<mxfile host="app.diagrams.net" modified="2024-06-13T23:22:02.007Z" agent="Mozilla/5.0 (Windows NT 10.0; Win64; x64) AppleWebKit/537.36 (KHTML, like Gecko) Chrome/125.0.0.0 Safari/537.36" etag="NjPM4Iwrfc44rHhP29rc" version="24.5.4" type="github">
  <diagram name="Page-1" id="4x8ULHyjZRehJjTFr5gb">
    <mxGraphModel dx="4037" dy="1716" grid="1" gridSize="10" guides="1" tooltips="1" connect="1" arrows="1" fold="1" page="1" pageScale="1" pageWidth="850" pageHeight="1100" math="0" shadow="0">
      <root>
        <mxCell id="0" />
        <mxCell id="1" parent="0" />
        <mxCell id="4VrkKZIj87dpLSVMsEwr-3" style="edgeStyle=orthogonalEdgeStyle;rounded=0;orthogonalLoop=1;jettySize=auto;html=1;exitX=0.5;exitY=0;exitDx=0;exitDy=0;entryX=0.5;entryY=1;entryDx=0;entryDy=0;" edge="1" parent="1" source="4VrkKZIj87dpLSVMsEwr-1" target="zRxno_FXxy2kHQEyp5Xb-32">
          <mxGeometry relative="1" as="geometry" />
        </mxCell>
        <mxCell id="4VrkKZIj87dpLSVMsEwr-1" value="has" style="rhombus;whiteSpace=wrap;html=1;" vertex="1" parent="1">
          <mxGeometry x="401" y="416" width="56" height="56" as="geometry" />
        </mxCell>
        <mxCell id="4VrkKZIj87dpLSVMsEwr-39" style="edgeStyle=orthogonalEdgeStyle;rounded=0;orthogonalLoop=1;jettySize=auto;html=1;exitX=1;exitY=0.5;exitDx=0;exitDy=0;entryX=0;entryY=0.5;entryDx=0;entryDy=0;" edge="1" parent="1" source="zRxno_FXxy2kHQEyp5Xb-1" target="4VrkKZIj87dpLSVMsEwr-29">
          <mxGeometry relative="1" as="geometry" />
        </mxCell>
        <mxCell id="zRxno_FXxy2kHQEyp5Xb-1" value="student" style="ellipse;whiteSpace=wrap;html=1;" parent="1" vertex="1">
          <mxGeometry x="369" y="737" width="120" height="80" as="geometry" />
        </mxCell>
        <mxCell id="zRxno_FXxy2kHQEyp5Xb-11" value="class" style="ellipse;whiteSpace=wrap;html=1;" parent="1" vertex="1">
          <mxGeometry x="689" y="737" width="120" height="80" as="geometry" />
        </mxCell>
        <mxCell id="4VrkKZIj87dpLSVMsEwr-19" style="edgeStyle=orthogonalEdgeStyle;rounded=0;orthogonalLoop=1;jettySize=auto;html=1;exitX=1;exitY=0.5;exitDx=0;exitDy=0;entryX=0;entryY=0.5;entryDx=0;entryDy=0;" edge="1" parent="1" source="zRxno_FXxy2kHQEyp5Xb-32" target="4VrkKZIj87dpLSVMsEwr-18">
          <mxGeometry relative="1" as="geometry" />
        </mxCell>
        <mxCell id="zRxno_FXxy2kHQEyp5Xb-32" value="teacher" style="ellipse;whiteSpace=wrap;html=1;" parent="1" vertex="1">
          <mxGeometry x="369" y="288" width="120" height="80" as="geometry" />
        </mxCell>
        <mxCell id="zRxno_FXxy2kHQEyp5Xb-34" value="subject" style="ellipse;whiteSpace=wrap;html=1;" parent="1" vertex="1">
          <mxGeometry x="689" y="288" width="120" height="80" as="geometry" />
        </mxCell>
        <mxCell id="4VrkKZIj87dpLSVMsEwr-11" style="edgeStyle=orthogonalEdgeStyle;rounded=0;orthogonalLoop=1;jettySize=auto;html=1;exitX=0.5;exitY=0;exitDx=0;exitDy=0;entryX=0.5;entryY=1;entryDx=0;entryDy=0;" edge="1" parent="1" source="zRxno_FXxy2kHQEyp5Xb-37" target="4VrkKZIj87dpLSVMsEwr-7">
          <mxGeometry relative="1" as="geometry" />
        </mxCell>
        <mxCell id="4VrkKZIj87dpLSVMsEwr-24" style="edgeStyle=orthogonalEdgeStyle;rounded=0;orthogonalLoop=1;jettySize=auto;html=1;exitX=0.5;exitY=1;exitDx=0;exitDy=0;entryX=1;entryY=0.5;entryDx=0;entryDy=0;" edge="1" parent="1" source="zRxno_FXxy2kHQEyp5Xb-37" target="4VrkKZIj87dpLSVMsEwr-21">
          <mxGeometry relative="1" as="geometry" />
        </mxCell>
        <mxCell id="zRxno_FXxy2kHQEyp5Xb-37" value="mark" style="ellipse;whiteSpace=wrap;html=1;" parent="1" vertex="1">
          <mxGeometry x="689" y="511" width="120" height="80" as="geometry" />
        </mxCell>
        <mxCell id="4VrkKZIj87dpLSVMsEwr-2" style="edgeStyle=orthogonalEdgeStyle;rounded=0;orthogonalLoop=1;jettySize=auto;html=1;exitX=0.5;exitY=0;exitDx=0;exitDy=0;entryX=0.5;entryY=1;entryDx=0;entryDy=0;" edge="1" parent="1" source="zRxno_FXxy2kHQEyp5Xb-48" target="4VrkKZIj87dpLSVMsEwr-1">
          <mxGeometry relative="1" as="geometry" />
        </mxCell>
        <mxCell id="4VrkKZIj87dpLSVMsEwr-22" style="edgeStyle=orthogonalEdgeStyle;rounded=0;orthogonalLoop=1;jettySize=auto;html=1;exitX=0.5;exitY=1;exitDx=0;exitDy=0;entryX=0.5;entryY=0;entryDx=0;entryDy=0;" edge="1" parent="1" source="zRxno_FXxy2kHQEyp5Xb-48" target="4VrkKZIj87dpLSVMsEwr-21">
          <mxGeometry relative="1" as="geometry" />
        </mxCell>
        <mxCell id="4VrkKZIj87dpLSVMsEwr-69" style="edgeStyle=orthogonalEdgeStyle;rounded=0;orthogonalLoop=1;jettySize=auto;html=1;exitX=1;exitY=0.5;exitDx=0;exitDy=0;entryX=0.5;entryY=1;entryDx=0;entryDy=0;" edge="1" parent="1" source="zRxno_FXxy2kHQEyp5Xb-48" target="4VrkKZIj87dpLSVMsEwr-18">
          <mxGeometry relative="1" as="geometry" />
        </mxCell>
        <mxCell id="zRxno_FXxy2kHQEyp5Xb-48" value="academic_review" style="ellipse;whiteSpace=wrap;html=1;" parent="1" vertex="1">
          <mxGeometry x="369" y="511" width="120" height="80" as="geometry" />
        </mxCell>
        <mxCell id="4VrkKZIj87dpLSVMsEwr-71" style="edgeStyle=orthogonalEdgeStyle;rounded=0;orthogonalLoop=1;jettySize=auto;html=1;exitX=1;exitY=0.5;exitDx=0;exitDy=0;entryX=0;entryY=0.5;entryDx=0;entryDy=0;" edge="1" parent="1" source="zRxno_FXxy2kHQEyp5Xb-59" target="4VrkKZIj87dpLSVMsEwr-70">
          <mxGeometry relative="1" as="geometry" />
        </mxCell>
        <mxCell id="zRxno_FXxy2kHQEyp5Xb-59" value="general_review" style="ellipse;whiteSpace=wrap;html=1;" parent="1" vertex="1">
          <mxGeometry x="44" y="404" width="120" height="80" as="geometry" />
        </mxCell>
        <mxCell id="4VrkKZIj87dpLSVMsEwr-10" style="edgeStyle=orthogonalEdgeStyle;rounded=0;orthogonalLoop=1;jettySize=auto;html=1;exitX=0.5;exitY=0;exitDx=0;exitDy=0;entryX=0.5;entryY=1;entryDx=0;entryDy=0;" edge="1" parent="1" source="4VrkKZIj87dpLSVMsEwr-7" target="zRxno_FXxy2kHQEyp5Xb-34">
          <mxGeometry relative="1" as="geometry" />
        </mxCell>
        <mxCell id="4VrkKZIj87dpLSVMsEwr-7" value="has" style="rhombus;whiteSpace=wrap;html=1;" vertex="1" parent="1">
          <mxGeometry x="721" y="416" width="56" height="56" as="geometry" />
        </mxCell>
        <mxCell id="4VrkKZIj87dpLSVMsEwr-20" style="edgeStyle=orthogonalEdgeStyle;rounded=0;orthogonalLoop=1;jettySize=auto;html=1;exitX=1;exitY=0.5;exitDx=0;exitDy=0;entryX=0;entryY=0.5;entryDx=0;entryDy=0;" edge="1" parent="1" source="4VrkKZIj87dpLSVMsEwr-18" target="zRxno_FXxy2kHQEyp5Xb-34">
          <mxGeometry relative="1" as="geometry" />
        </mxCell>
        <mxCell id="4VrkKZIj87dpLSVMsEwr-18" value="has" style="rhombus;whiteSpace=wrap;html=1;" vertex="1" parent="1">
          <mxGeometry x="563.5" y="300" width="56" height="56" as="geometry" />
        </mxCell>
        <mxCell id="4VrkKZIj87dpLSVMsEwr-23" style="edgeStyle=orthogonalEdgeStyle;rounded=0;orthogonalLoop=1;jettySize=auto;html=1;exitX=0.5;exitY=1;exitDx=0;exitDy=0;entryX=0.5;entryY=0;entryDx=0;entryDy=0;" edge="1" parent="1" source="4VrkKZIj87dpLSVMsEwr-21" target="zRxno_FXxy2kHQEyp5Xb-1">
          <mxGeometry relative="1" as="geometry" />
        </mxCell>
        <mxCell id="4VrkKZIj87dpLSVMsEwr-21" value="has" style="rhombus;whiteSpace=wrap;html=1;" vertex="1" parent="1">
          <mxGeometry x="401" y="638" width="56" height="56" as="geometry" />
        </mxCell>
        <mxCell id="4VrkKZIj87dpLSVMsEwr-40" style="edgeStyle=orthogonalEdgeStyle;rounded=0;orthogonalLoop=1;jettySize=auto;html=1;exitX=1;exitY=0.5;exitDx=0;exitDy=0;entryX=0;entryY=0.5;entryDx=0;entryDy=0;" edge="1" parent="1" source="4VrkKZIj87dpLSVMsEwr-29" target="zRxno_FXxy2kHQEyp5Xb-11">
          <mxGeometry relative="1" as="geometry" />
        </mxCell>
        <mxCell id="4VrkKZIj87dpLSVMsEwr-29" value="has" style="rhombus;whiteSpace=wrap;html=1;" vertex="1" parent="1">
          <mxGeometry x="563.5" y="749" width="56" height="56" as="geometry" />
        </mxCell>
        <mxCell id="4VrkKZIj87dpLSVMsEwr-63" style="edgeStyle=orthogonalEdgeStyle;rounded=0;orthogonalLoop=1;jettySize=auto;html=1;entryX=0.5;entryY=1;entryDx=0;entryDy=0;" edge="1" parent="1" source="4VrkKZIj87dpLSVMsEwr-36" target="4VrkKZIj87dpLSVMsEwr-29">
          <mxGeometry relative="1" as="geometry" />
        </mxCell>
        <mxCell id="4VrkKZIj87dpLSVMsEwr-65" style="edgeStyle=orthogonalEdgeStyle;rounded=0;orthogonalLoop=1;jettySize=auto;html=1;exitX=0;exitY=0.5;exitDx=0;exitDy=0;entryX=1;entryY=0.5;entryDx=0;entryDy=0;" edge="1" parent="1" source="4VrkKZIj87dpLSVMsEwr-36" target="4VrkKZIj87dpLSVMsEwr-64">
          <mxGeometry relative="1" as="geometry" />
        </mxCell>
        <mxCell id="4VrkKZIj87dpLSVMsEwr-36" value="attendance" style="ellipse;whiteSpace=wrap;html=1;" vertex="1" parent="1">
          <mxGeometry x="531.5" y="862" width="120" height="80" as="geometry" />
        </mxCell>
        <mxCell id="4VrkKZIj87dpLSVMsEwr-41" value="parents" style="ellipse;whiteSpace=wrap;html=1;" vertex="1" parent="1">
          <mxGeometry x="44" y="737" width="120" height="80" as="geometry" />
        </mxCell>
        <mxCell id="4VrkKZIj87dpLSVMsEwr-53" style="edgeStyle=orthogonalEdgeStyle;rounded=0;orthogonalLoop=1;jettySize=auto;html=1;exitX=0.5;exitY=0;exitDx=0;exitDy=0;entryX=0;entryY=0.5;entryDx=0;entryDy=0;" edge="1" parent="1" source="4VrkKZIj87dpLSVMsEwr-44" target="4VrkKZIj87dpLSVMsEwr-21">
          <mxGeometry relative="1" as="geometry" />
        </mxCell>
        <mxCell id="4VrkKZIj87dpLSVMsEwr-55" style="edgeStyle=orthogonalEdgeStyle;rounded=0;orthogonalLoop=1;jettySize=auto;html=1;exitX=1;exitY=0.5;exitDx=0;exitDy=0;entryX=0;entryY=0.5;entryDx=0;entryDy=0;" edge="1" parent="1" source="4VrkKZIj87dpLSVMsEwr-44" target="4VrkKZIj87dpLSVMsEwr-54">
          <mxGeometry relative="1" as="geometry" />
        </mxCell>
        <mxCell id="4VrkKZIj87dpLSVMsEwr-44" value="parent_student&lt;br&gt;_mapping" style="ellipse;whiteSpace=wrap;html=1;" vertex="1" parent="1">
          <mxGeometry x="-290" y="736" width="126" height="84" as="geometry" />
        </mxCell>
        <mxCell id="4VrkKZIj87dpLSVMsEwr-60" style="edgeStyle=orthogonalEdgeStyle;rounded=0;orthogonalLoop=1;jettySize=auto;html=1;exitX=0.5;exitY=0;exitDx=0;exitDy=0;entryX=0.5;entryY=1;entryDx=0;entryDy=0;" edge="1" parent="1" source="4VrkKZIj87dpLSVMsEwr-47" target="4VrkKZIj87dpLSVMsEwr-59">
          <mxGeometry relative="1" as="geometry" />
        </mxCell>
        <mxCell id="4VrkKZIj87dpLSVMsEwr-47" value="notification" style="ellipse;whiteSpace=wrap;html=1;" vertex="1" parent="1">
          <mxGeometry x="211" y="862" width="120" height="80" as="geometry" />
        </mxCell>
        <mxCell id="4VrkKZIj87dpLSVMsEwr-56" style="edgeStyle=orthogonalEdgeStyle;rounded=0;orthogonalLoop=1;jettySize=auto;html=1;exitX=1;exitY=0.5;exitDx=0;exitDy=0;entryX=0;entryY=0.5;entryDx=0;entryDy=0;" edge="1" parent="1" source="4VrkKZIj87dpLSVMsEwr-54" target="4VrkKZIj87dpLSVMsEwr-41">
          <mxGeometry relative="1" as="geometry" />
        </mxCell>
        <mxCell id="4VrkKZIj87dpLSVMsEwr-54" value="has" style="rhombus;whiteSpace=wrap;html=1;" vertex="1" parent="1">
          <mxGeometry x="-90" y="749" width="56" height="56" as="geometry" />
        </mxCell>
        <mxCell id="4VrkKZIj87dpLSVMsEwr-61" style="edgeStyle=orthogonalEdgeStyle;rounded=0;orthogonalLoop=1;jettySize=auto;html=1;exitX=0;exitY=0.5;exitDx=0;exitDy=0;entryX=1;entryY=0.5;entryDx=0;entryDy=0;" edge="1" parent="1" source="4VrkKZIj87dpLSVMsEwr-59" target="4VrkKZIj87dpLSVMsEwr-41">
          <mxGeometry relative="1" as="geometry" />
        </mxCell>
        <mxCell id="4VrkKZIj87dpLSVMsEwr-62" style="edgeStyle=orthogonalEdgeStyle;rounded=0;orthogonalLoop=1;jettySize=auto;html=1;exitX=1;exitY=0.5;exitDx=0;exitDy=0;entryX=0;entryY=0.5;entryDx=0;entryDy=0;" edge="1" parent="1" source="4VrkKZIj87dpLSVMsEwr-59" target="zRxno_FXxy2kHQEyp5Xb-1">
          <mxGeometry relative="1" as="geometry" />
        </mxCell>
        <mxCell id="4VrkKZIj87dpLSVMsEwr-59" value="has" style="rhombus;whiteSpace=wrap;html=1;" vertex="1" parent="1">
          <mxGeometry x="243" y="749" width="56" height="56" as="geometry" />
        </mxCell>
        <mxCell id="4VrkKZIj87dpLSVMsEwr-66" style="edgeStyle=orthogonalEdgeStyle;rounded=0;orthogonalLoop=1;jettySize=auto;html=1;exitX=0.5;exitY=0;exitDx=0;exitDy=0;entryX=0.5;entryY=1;entryDx=0;entryDy=0;" edge="1" parent="1" source="4VrkKZIj87dpLSVMsEwr-64" target="zRxno_FXxy2kHQEyp5Xb-1">
          <mxGeometry relative="1" as="geometry" />
        </mxCell>
        <mxCell id="4VrkKZIj87dpLSVMsEwr-64" value="has" style="rhombus;whiteSpace=wrap;html=1;" vertex="1" parent="1">
          <mxGeometry x="401" y="874" width="56" height="56" as="geometry" />
        </mxCell>
        <mxCell id="4VrkKZIj87dpLSVMsEwr-72" style="edgeStyle=orthogonalEdgeStyle;rounded=0;orthogonalLoop=1;jettySize=auto;html=1;exitX=0.5;exitY=1;exitDx=0;exitDy=0;entryX=0;entryY=0.5;entryDx=0;entryDy=0;" edge="1" parent="1" source="4VrkKZIj87dpLSVMsEwr-70" target="4VrkKZIj87dpLSVMsEwr-21">
          <mxGeometry relative="1" as="geometry" />
        </mxCell>
        <mxCell id="4VrkKZIj87dpLSVMsEwr-73" style="edgeStyle=orthogonalEdgeStyle;rounded=0;orthogonalLoop=1;jettySize=auto;html=1;exitX=0.5;exitY=0;exitDx=0;exitDy=0;entryX=0;entryY=0.5;entryDx=0;entryDy=0;" edge="1" parent="1" source="4VrkKZIj87dpLSVMsEwr-70" target="zRxno_FXxy2kHQEyp5Xb-32">
          <mxGeometry relative="1" as="geometry" />
        </mxCell>
        <mxCell id="4VrkKZIj87dpLSVMsEwr-70" value="has" style="rhombus;whiteSpace=wrap;html=1;" vertex="1" parent="1">
          <mxGeometry x="243" y="416" width="56" height="56" as="geometry" />
        </mxCell>
      </root>
    </mxGraphModel>
  </diagram>
</mxfile>
